<svg width="160" height="160" viewBox="0 0 160 160" fill="none" xmlns="http://www.w3.org/2000/svg">
<path d="M151.975 89.6127C156.622 84.0465 156.622 75.9535 151.975 70.3873L146.225 63.4986C143.682 60.4529 142.45 56.5239 142.797 52.5716L143.592 43.5358C144.244 36.1224 139.362 29.3519 132.122 27.629L124.848 25.8981C120.783 24.9308 117.306 22.3119 115.254 18.6722L111.455 11.933C107.645 5.17474 99.3097 2.43713 92.2345 5.62002L86.1539 8.35543C82.2402 10.116 77.7598 10.116 73.8461 8.35543L67.7488 5.61247C60.6805 2.43274 52.3537 5.1615 48.5383 11.9079L44.7596 18.5893C42.6991 22.2327 39.21 24.8495 35.1354 25.8073L27.918 27.5038C20.6595 29.21 15.7563 35.9887 16.4078 43.4165L17.2057 52.5128C17.5514 56.4548 16.3255 60.3737 13.7949 63.4159L7.99347 70.3904C3.36298 75.9571 3.37009 84.037 8.01036 89.5956L13.7767 96.503C16.3185 99.5478 17.5509 103.475 17.2043 107.426L16.4046 116.543C15.7545 123.955 20.6362 130.724 27.8748 132.446L35.1634 134.181C39.2214 135.147 42.6941 137.758 44.7475 141.389L48.5209 148.061C52.3436 154.821 60.6929 157.545 67.7664 154.341L73.8322 151.594C77.7536 149.818 82.249 149.812 86.1749 151.578L92.2513 154.311C99.3195 157.491 107.646 154.762 111.462 148.016L115.252 141.313C117.306 137.682 120.779 135.07 124.837 134.105L132.122 132.371C139.362 130.648 144.244 123.878 143.592 116.464L142.797 107.428C142.45 103.476 143.682 99.5471 146.225 96.5014L151.975 89.6127Z" fill="#F0D288"/>
<path d="M55.5679 119.019L55.8825 119.408L56.2711 119.093L59.4692 116.503L59.8578 116.189L59.5431 115.8L51.7969 106.234C49.9935 104.007 49.1928 102.119 49.2426 100.549L49.2426 100.549L49.2427 100.545C49.2768 99.1199 49.8962 97.9066 51.1577 96.8851C52.3959 95.8824 53.6045 95.5725 54.8182 95.8594C55.8204 96.1014 56.919 96.8928 58.1026 98.3546L67.2053 109.595L67.52 109.984L67.9085 109.669L71.1066 107.08L71.4952 106.765L71.1805 106.376L62.0065 95.0473C60.1781 92.7894 58.4222 91.3492 56.7308 90.8525C54.0341 90.058 51.427 90.709 48.9544 92.7112C46.9899 94.3021 45.8674 96.2697 45.6082 98.592L44.7289 97.5062L44.4143 97.1176L44.0257 97.4323L40.8276 100.022L40.4391 100.337L40.7537 100.725L55.5679 119.019ZM85.4494 84.1115L84.9218 84.2081L85.0551 84.7276C85.3775 85.9838 85.4175 87.2619 85.1733 88.5672C84.845 90.1907 84.0093 91.549 82.6449 92.6539C81.1189 93.8896 79.4113 94.391 77.4934 94.1716C75.7311 93.97 74.1622 93.1393 72.7817 91.6364L86.7248 80.3455L87.1013 80.0406L86.8084 79.6546C84.5673 76.7018 82.0498 74.7957 79.2457 74.0019C75.6893 72.9887 72.2952 73.8103 69.1079 76.3912C66.2851 78.6771 64.7784 81.494 64.6425 84.824L64.6425 84.8246C64.5134 88.081 65.6345 91.1512 67.9593 94.0222C70.5882 97.2685 73.5353 99.0458 76.8028 99.2339L76.8028 99.234L76.8115 99.2343C80.0288 99.3636 82.9362 98.376 85.5144 96.2883C88.0016 94.2742 89.5067 91.7638 90.0021 88.7694L90.0024 88.768C90.2587 87.1902 90.2133 85.5341 89.8731 83.8035L89.7779 83.3192L89.2924 83.4081L85.4494 84.1115ZM76.2604 78.5812L76.2683 78.5817L76.2762 78.5818C77.6641 78.6121 78.964 79.0693 80.1837 79.9762L70.3068 87.9744C69.6944 86.6639 69.5132 85.3199 69.7531 83.9301L69.7532 83.9292C70.0323 82.294 70.7874 80.9893 72.0218 79.9896C73.2915 78.9614 74.6975 78.4978 76.2604 78.5812ZM80.4114 67.9677L79.8033 68.4601L80.5057 68.8051L105.416 81.0398L106.438 81.5415L106.116 80.4497L101.075 63.3332L116.77 71.8228L117.766 72.3616L117.493 71.2625L110.794 44.2806L110.604 43.5181L109.994 44.0125L106.44 46.89L106.187 47.0948L106.272 47.4089L110.527 63.1734L94.6136 54.5287L93.5563 53.9544L93.8951 55.1089L99.0009 72.5063L84.5086 65.0344L84.2185 64.8848L83.9649 65.0902L80.4114 67.9677Z" fill="#292E39" stroke="black"/>
</svg>
